<svg id="Capa_1" enable-background="new 0 0 510.002 510.002" viewBox="0 0 510.002 510.002" xmlns="http://www.w3.org/2000/svg"><g><g><path id="XMLID_329_" d="m50.001 90h410v230h-410z" fill="#b2f0fb"></path></g><g fill="#020288"><path d="m257.072 187.929c-3.905-3.905-10.237-3.905-14.143 0l-12.929 12.929-12.929-12.929c-3.905-3.905-10.237-3.905-14.143 0-3.905 3.905-3.905 10.237 0 14.143l12.931 12.928-12.929 12.929c-3.905 3.905-3.905 10.237 0 14.143 3.904 3.904 10.237 3.905 14.143 0l12.929-12.929 12.929 12.929c3.904 3.904 10.237 3.905 14.143 0 3.905-3.905 3.905-10.237 0-14.143l-12.93-12.929 12.929-12.929c3.905-3.905 3.905-10.237-.001-14.142z"></path><path d="m310.001 185h-20c-5.523 0-10 4.477-10 10s4.477 10 10 10h20c5.523 0 10-4.477 10-10s-4.477-10-10-10z"></path><path d="m310.001 225h-20c-5.523 0-10 4.477-10 10s4.477 10 10 10h20c5.523 0 10-4.477 10-10s-4.477-10-10-10z"></path><path d="m382.93 187.929-12.929 12.929-12.929-12.929c-3.906-3.905-10.236-3.905-14.143 0-3.905 3.905-3.905 10.237 0 14.143l17.071 17.071v15.857c0 5.523 4.478 10 10 10 5.523 0 10-4.477 10-10v-15.857l17.071-17.071c3.905-3.905 3.905-10.237 0-14.143s-10.235-3.906-14.141 0z"></path><path d="m400.001 150c0-5.523-4.477-10-10-10h-210c-4.833 0-8.974 3.456-9.839 8.211l-16.586 91.222-26.504-26.504c-3.905-3.904-10.237-3.904-14.143 0-3.905 3.905-3.905 10.237 0 14.143l40 40c5.687 5.686 15.467 2.651 16.91-5.282l18.508-101.79h201.654c5.523 0 10-4.477 10-10z"></path><path d="m470.001 40h-185v-10c0-16.542-13.458-30-30-30s-30 13.458-30 30v10h-185c-22.056 0-40 17.944-40 40v250c0 22.056 17.944 40 40 40h120.694l-17.143 40h-33.552c-5.523 0-10 4.477-10 10s4.477 10 10 10h24.98l-28.312 66.061c-2.836 6.618 2.055 13.941 9.187 13.941 3.88 0 7.571-2.271 9.196-6.063l31.689-73.939h196.521l31.688 73.939c1.625 3.792 5.316 6.063 9.196 6.063 7.146 0 12.019-7.334 9.187-13.941l-28.311-66.061h24.98c5.523 0 10-4.477 10-10s-4.477-10-10-10h-33.553l-17.143-40h120.695c22.056 0 40-17.944 40-40v-250c.001-22.056-17.943-40-39.999-40zm-225-10c0-5.514 4.486-10 10-10s10 4.486 10 10v10h-20zm99.689 380h-179.378l17.143-40h145.092zm145.311-80c0 11.028-8.972 20-20 20-18.76 0-411.117 0-430 0-11.028 0-20-8.972-20-20v-250c0-11.028 8.972-20 20-20h430c11.028 0 20 8.972 20 20z"></path></g></g></svg>