<svg viewBox="0 0 511 512" xmlns="http://www.w3.org/2000/svg"><path d="m32.5 501.332031h362.667969c11.78125 0 21.332031-9.550781 21.332031-21.332031v-448c0-11.78125-9.550781-21.332031-21.332031-21.332031h-298.667969l-85.332031 85.332031v384c0 11.78125 9.550781 21.332031 21.332031 21.332031zm0 0" fill="#fff"></path><path d="m96.5 10.667969v64c-.035156 11.765625-9.566406 21.296875-21.332031 21.332031h-64zm0 0" fill="#58abfb"></path><path d="m501.832031 285.546875-107.839843 107.945313-54.613282 54.507812-29.546875-29.546875 129.28125-129.171875 33.171875-33.28125zm0 0" fill="#58abfb"></path><g fill="#107be8"><path d="m405.832031 480c0 5.890625-4.773437 10.667969-10.664062 10.667969h-362.667969c-5.890625 0-10.667969-4.777344-10.667969-10.667969v-373.332031h53.335938c17.671875 0 32-14.328125 32-32v-53.335938h288c5.890625 0 10.664062 4.777344 10.664062 10.667969v234.667969h21.335938v-234.667969c0-17.671875-14.328125-32-32-32h-298.667969c-2.828125 0-5.542969 1.125-7.542969 3.125l-85.332031 85.332031c-2.007812 1.996094-3.132812 4.710938-3.125 7.542969v384c0 17.671875 14.328125 32 32 32h362.667969c17.671875 0 32-14.328125 32-32v-64h-21.335938zm-330.664062-394.667969h-38.25l48.914062-48.917969v38.253907c0 5.890625-4.773437 10.664062-10.664062 10.664062zm0 0"></path><path d="m384.5 74.667969c0-17.675781-14.328125-32-32-32h-21.332031v21.332031h21.332031c5.890625 0 10.667969 4.777344 10.667969 10.667969v21.332031h21.332031zm0 0"></path><path d="m288.5 42.667969h21.332031v21.332031h-21.332031zm0 0"></path><path d="m75.167969 224h42.664062v-21.332031h-42.664062c-17.675781 0-32 14.324219-32 32v42.664062c0 17.675781 14.324219 32 32 32h42.664062v-21.332031h-42.664062c-5.890625 0-10.667969-4.777344-10.667969-10.667969v-10.664062h42.667969v-21.335938h-42.667969v-10.664062c0-5.890625 4.777344-10.667969 10.667969-10.667969zm0 0"></path><path d="m331.167969 224h21.332031c5.890625 0 10.667969 4.777344 10.667969 10.667969h21.332031c0-17.675781-14.328125-32-32-32h-21.332031c-17.675781 0-32 14.324219-32 32v42.664062c0 17.675781 14.324219 32 32 32h21.332031c17.671875 0 32-14.324219 32-32h-21.332031c0 5.890625-4.777344 10.667969-10.667969 10.667969h-21.332031c-5.890625 0-10.667969-4.777344-10.667969-10.667969v-42.664062c0-5.890625 4.777344-10.667969 10.667969-10.667969zm0 0"></path><path d="m288.5 309.332031v-74.664062c0-17.675781-14.328125-32-32-32-7.910156-.023438-15.535156 2.957031-21.332031 8.339843-5.828125-5.339843-13.433594-8.3125-21.335938-8.339843-17.628906.097656-31.898437 14.367187-32 32v74.664062h21.335938v-74.664062c-.003907-2.875 1.175781-5.621094 3.261719-7.597657 1.945312-1.988281 4.621093-3.097656 7.402343-3.070312 5.890625 0 10.667969 4.777344 10.667969 10.667969v74.664062h21.332031v-74.664062c-.003906-2.875 1.179688-5.621094 3.265625-7.597657 1.945313-1.988281 4.621094-3.097656 7.402344-3.070312 5.890625 0 10.667969 4.777344 10.667969 10.667969v74.664062zm0 0"></path><path d="m128.5 224h42.667969v21.332031h-42.667969zm0 0"></path><path d="m128.5 266.667969h42.667969v21.332031h-42.667969zm0 0"></path><path d="m509.375 278.003906-29.546875-29.546875c-2-2-4.710937-3.125-7.542969-3.125-2.828125.003907-5.542968 1.132813-7.539062 3.136719l-162.453125 162.441406c-1.332031 1.421875-2.246094 3.183594-2.636719 5.089844h-.488281v21.332031h-181.335938v21.335938h224v-.480469c1.90625-.382812 3.667969-1.296875 5.078125-2.636719l162.464844-162.460937c4.164062-4.167969 4.164062-10.917969 0-15.085938zm-169.984375 154.925782-14.472656-14.476563 147.378906-147.359375 14.453125 14.453125zm0 0"></path><path d="m75.167969 437.332031h21.332031v21.335938h-21.332031zm0 0"></path></g></svg>