<svg id="_x31_3.dictionary" enable-background="new 0 0 195 195" viewBox="0 0 195 195" xmlns="http://www.w3.org/2000/svg" xmlns:xlink="http://www.w3.org/1999/xlink"><linearGradient id="lg1"><stop offset="0" stop-color="#09c4f9"></stop><stop offset="1" stop-color="#0163ec"></stop></linearGradient><linearGradient id="SVGID_1_" gradientUnits="userSpaceOnUse" x1="87.065" x2="87.065" xlink:href="#lg1" y1="17.879" y2="175.073"></linearGradient><linearGradient id="SVGID_2_" gradientUnits="userSpaceOnUse" x1="97.5" x2="97.5" xlink:href="#lg1" y1="17.879" y2="175.073"></linearGradient><g id="icon_47_"><path d="m87.3 58.3c-.1 0-.3 0-.4 0-1.6 4.3-3.3 8.5-5 12.9h10.4c-1.8-4.5-3.4-8.7-5-12.9z" fill="url(#SVGID_1_)"></path><path d="m154.7 21.5h-27.7c-15.8 0-31.6 0-47.5 0-9 0-18-.1-27 .1-8.5.1-15.2 6.9-15.3 15.4-.1 12.3-.1 24.5-.1 36.8v82.6c0 7 2.7 12.4 9 15.5 1.9.9 4.2 1.5 6.3 1.5 34.1.1 68.1.1 102.2.1 2.5 0 3.3-.9 3.3-3.7 0-26.7 0-53.4 0-80.1 0-15.1 0-30.3 0-45.4v-19.6c-.1-1.8-1.5-3.2-3.2-3.2zm-42.9 68.3h9.3c0-1.8 0-3.3 0-4.8 0-1.9 1.1-3.1 2.6-3.1s2.6 1.2 2.6 3.1v4.8h8.9c.8 0 1.6 0 2.3.2 1.3.3 1.9 1.3 1.8 2.6s-.9 2.4-2.1 2.2c-2.9-.5-3.4 1.3-3.9 3.5-1 4.3-3.1 8.2-6.2 12 2.2 1.7 4.2 3.3 6.3 4.9.5.4 1.1.7 1.7 1 1.6 1.1 2 2.5 1.2 3.8-.8 1.2-2.3 1.6-3.8.6-3-2-5.9-4.1-8.8-6.2-2.5 1.8-5.2 3.8-7.9 5.7-.1.1-.3.2-.5.3-1.9 1.1-3.4 1-4.3-.4s-.3-2.8 1.5-4.1c2.3-1.6 4.5-3.4 6.8-5.1.2-.2.5-.4.8-.6-1.2-1.9-2.4-3.6-3.5-5.4-1-1.6-.8-3.1.5-4 1.3-.8 2.8-.4 3.9 1.1.9 1.3 1.6 2.6 2.6 4.2 2.5-3.5 4.4-6.9 5-11.1-.6-.1-1.1-.1-1.5-.1-5.1 0-10.3 0-15.4 0-2.5 0-3.7-.8-3.7-2.5 0-1.6 1.4-2.6 3.8-2.6zm-40-6.9c4.2-11 8.4-22 12.7-32.9.4-.9 1.6-1.9 2.5-2.2 1.3-.3 2.2.9 2.8 2.1 4.2 11.1 8.5 22.2 12.7 33.3.4 1.2.1 2.5-.9 3.3-.2.2-.5.4-.8.4-1.3.5-2.5-.3-3-1.6-1-2.4-2-4.8-2.8-7.3-.4-1.2-.9-1.7-2.3-1.7-3.8.1-7.6.1-11.4 0-1.2 0-1.7.4-2.1 1.5-.8 2.3-1.7 4.5-2.5 6.8-.7 1.8-2.2 2.7-3.6 2.1-1.5-.4-2.1-1.9-1.3-3.8zm-18.7-58.6h4.9v117.7h-4.9zm99.3 138.6h-49.4-13.4-10.3-5.8-11v.1c-3.1 0-6.2 0-9.3 0s-5.3-2-5.5-4.9c-.2-2.7 2-5.4 4.9-5.4 3.3-.1 6.6-.1 9.9-.1h40.5v.1h49.4z" fill="url(#SVGID_2_)"></path></g></svg>